<svg xmlns="http://www.w3.org/2000/svg" viewBox="0 0 936 702" width="936" height="702">
  <rect width="936" height="702" fill="#F4F4F6"/>
  <rect x="48" y="48" width="840" height="80" rx="10" fill="#17181A"/>
  <rect x="48" y="148" width="300" height="32" rx="4" fill="#2E2F33"/>
  <rect x="48" y="200" width="840" height="110" rx="10" fill="#FFFFFF" stroke="#D8D9DE"/>
  <circle cx="88" cy="255" r="18" fill="#F06A6A"/>
  <text x="88" y="260" font-family="system-ui" font-size="14" fill="white" text-anchor="middle">1</text>
  <rect x="120" y="240" width="280" height="16" rx="3" fill="#2E2F33"/>
  <rect x="120" y="268" width="80" height="20" rx="10" fill="#FCE4E4"/>
  <rect x="48" y="330" width="840" height="110" rx="10" fill="#FFFFFF" stroke="#D8D9DE"/>
  <circle cx="88" cy="385" r="18" fill="#F06A6A"/>
  <text x="88" y="390" font-family="system-ui" font-size="14" fill="white" text-anchor="middle">2</text>
  <rect x="120" y="370" width="320" height="16" rx="3" fill="#2E2F33"/>
  <rect x="120" y="398" width="100" height="20" rx="10" fill="#E4ECFC"/>
  <rect x="48" y="460" width="840" height="110" rx="10" fill="#FFFFFF" stroke="#D8D9DE"/>
  <circle cx="88" cy="515" r="18" fill="#F06A6A"/>
  <text x="88" y="520" font-family="system-ui" font-size="14" fill="white" text-anchor="middle">3</text>
  <rect x="120" y="500" width="260" height="16" rx="3" fill="#2E2F33"/>
  <rect x="120" y="528" width="90" height="20" rx="10" fill="#FDEFD9"/>
  <text x="468" y="640" font-family="system-ui" font-size="16" fill="#6C6F76" text-anchor="middle">Asana: Explainable Smart Priority</text>
</svg>